<?xml version="1.0" encoding="UTF-8" standalone="no"?>
<svg
   data-v-1084b650=""
   viewBox="0 0 269.14499 35.368534"
   version="1.1"
   id="svg16"
   sodipodi:docname="icon-left-font.svg"
   width="269.14499"
   height="35.368534"
   inkscape:version="1.1.2 (0a00cf5339, 2022-02-04)"
   xmlns:inkscape="http://www.inkscape.org/namespaces/inkscape"
   xmlns:sodipodi="http://sodipodi.sourceforge.net/DTD/sodipodi-0.dtd"
   xmlns="http://www.w3.org/2000/svg"
   xmlns:svg="http://www.w3.org/2000/svg">
  <defs
     id="defs20" />
  <sodipodi:namedview
     id="namedview18"
     pagecolor="#ffffff"
     bordercolor="#666666"
     borderopacity="1.0"
     inkscape:pageshadow="2"
     inkscape:pageopacity="0.0"
     inkscape:pagecheckerboard="0"
     showgrid="false"
     fit-margin-top="0"
     fit-margin-left="0"
     fit-margin-right="0"
     fit-margin-bottom="0"
     inkscape:zoom="3.9315137"
     inkscape:cx="103.52247"
     inkscape:cy="12.463393"
     inkscape:window-width="1920"
     inkscape:window-height="1019"
     inkscape:window-x="1920"
     inkscape:window-y="37"
     inkscape:window-maximized="1"
     inkscape:current-layer="svg16" />
  <!---->
  <!---->
  <!---->
  <!---->
  <g
     id="g9609"
     transform="matrix(1.2244179,0,0,1.2244179,-71.027076,-165.97842)">
    <g
       data-v-1084b650=""
       id="b5a93e15-ef7c-9d7a-680b-cdb17474f15f"
       fill="#FD2D01"
       transform="matrix(2.2,0,0,2.2,90.867494,130.233)"
       style="display:inline;fill:#fd2d01;fill-opacity:1">
      <path
         d="m 5.41,12.67 v 0 q -2.18,0 -3.65,-1.47 v 0 0 Q 0.29,9.73 0.29,7.53 v 0 0 q 0,-2.16 1.47,-3.64 v 0 0 Q 3.23,2.42 5.41,2.42 v 0 0 q 2.19,0 3.76,1.37 v 0 L 7.81,5.28 v 0 Q 6.76,4.46 5.41,4.46 v 0 0 Q 4.03,4.47 3.18,5.33 v 0 0 Q 2.34,6.18 2.34,7.51 v 0 0 q 0,1.43 0.85,2.27 v 0 0 q 0.85,0.84 2.23,0.84 v 0 0 q 1.11,0 1.7,-0.43 v 0 -1.76 L 5.76,8.44 V 6.52 h 3.41 v 4.79 0 q -1.56,1.36 -3.76,1.36 z m 7.43,-6.84 v 0.76 0 q 0.74,-0.75 1.79,-0.75 v 0 0 q 0.33,0 0.63,0.05 v 0 l -0.3,1.89 v 0 Q 14.63,7.48 14.01,7.46 v 0 0 q -0.7,0.05 -1.17,1.01 v 0 4.2 H 10.93 V 6.04 Z m 6.77,6.91 v 0 q -1.49,0 -2.49,-1 v 0 0 q -0.99,-1 -0.99,-2.48 v 0 0 q 0,-1.49 0.99,-2.49 v 0 0 q 1,-1 2.49,-1 v 0 0 q 1.49,0 2.49,1 v 0 0 q 1,1 1,2.49 v 0 0 q 0,1.49 -1,2.48 v 0 0 q -1,1 -2.49,1 z m 0,-1.65 v 0 0 q 0.77,0 1.26,-0.53 v 0 0 q 0.49,-0.52 0.49,-1.3 v 0 0 q 0,-0.78 -0.49,-1.3 v 0 0 Q 20.38,7.43 19.6,7.43 v 0 0 q -0.77,0 -1.26,0.53 v 0 0 q -0.48,0.52 -0.48,1.3 v 0 0 q 0,0.78 0.48,1.3 v 0 0 q 0.49,0.53 1.27,0.53 z m 8.91,-0.84 v 0 -4.42 h 1.91 v 6.84 h -1.91 v -0.62 0 q -0.69,0.62 -1.64,0.62 v 0 0 q -1.3,0 -1.98,-0.79 v 0 0 q -0.69,-0.79 -0.69,-1.81 v 0 -4.24 h 1.92 v 3.76 0 q 0,0.68 0.34,1.06 v 0 0 q 0.34,0.38 1.03,0.4 v 0 0 q 0.6,-0.04 1.02,-0.8 z m 5.45,5.3 -1.91,-0.01 v -9.5 l 1.91,-0.21 v 0.55 0 q 0.77,-0.55 1.51,-0.55 v 0 0 q 1.57,0 2.49,1.03 v 0 0 q 0.93,1.02 0.93,2.39 v 0 0 q 0,1.37 -0.93,2.39 v 0 0 q -0.92,1.03 -2.49,1.03 v 0 0 Q 34.45,12.6 33.97,12.11 v 0 z m 0,-6.92 v 0 1.11 0 q 0.14,1.15 1.44,1.35 v 0 0 q 1.64,-0.13 1.85,-1.7 v 0 0 Q 37.19,7.47 35.41,7.4 v 0 0 q -1.3,0.21 -1.44,1.23 z m 9.38,4.11 v 0 q -1.49,0 -2.48,-1 v 0 0 q -1,-1 -1,-2.48 v 0 0 q 0,-1.49 1,-2.49 v 0 0 q 0.99,-1 2.48,-1 v 0 0 q 1.49,0 2.49,1 v 0 0 q 1,1 1,2.49 v 0 0 q 0,1.49 -1,2.48 v 0 0 q -1,1 -2.49,1 z m 0,-1.65 v 0 0 q 0.78,0 1.26,-0.53 v 0 0 q 0.49,-0.52 0.49,-1.3 v 0 0 q 0,-0.78 -0.49,-1.3 v 0 0 Q 44.13,7.43 43.34,7.43 v 0 0 q -0.77,0 -1.26,0.53 v 0 0 Q 41.6,8.48 41.6,9.26 v 0 0 q 0,0.78 0.48,1.3 v 0 0 q 0.49,0.53 1.27,0.53 z M 50.03,8.3 v 0 4.37 H 48.11 V 6.04 l 1.92,-0.21 v 0.61 0 q 0.64,-0.6 1.64,-0.6 v 0 0 q 1.29,0 1.98,0.78 v 0 0 Q 54.4,5.84 55.9,5.84 v 0 0 q 1.3,0 1.99,0.78 v 0 0 q 0.68,0.79 0.68,1.82 v 0 4.23 h -1.91 v -3.76 0 q 0,-0.68 -0.31,-1.06 v 0 0 q -0.31,-0.37 -1,-0.39 v 0 0 Q 54.78,7.5 54.37,8.21 v 0 0 q -0.04,0.21 -0.04,0.43 v 0 4.03 h -1.91 v -3.76 0 q 0,-0.68 -0.31,-1.06 v 0 0 q -0.31,-0.37 -1,-0.39 v 0 0 Q 50.48,7.5 50.03,8.3 Z M 61.14,7.82 60.39,6.66 v 0 q 1.3,-0.82 3.01,-0.82 v 0 0 q 1.23,0 1.94,0.68 v 0 0 q 0.72,0.69 0.72,2.05 v 0 4.1 h -1.91 v -0.54 0 q -0.84,0.54 -1.51,0.54 v 0 0 q -1.36,0 -2.05,-0.58 v 0 0 q -0.68,-0.58 -0.68,-1.6 v 0 0 q 0,-0.96 0.65,-1.71 v 0 0 Q 61.2,8.03 62.64,8.03 v 0 0 q 0.67,0 1.51,0.41 v 0 -0.21 0 Q 64.13,7.48 63.05,7.41 v 0 0 q -1.23,0 -1.91,0.41 z m 3.01,2.8 v 0 -0.77 0 Q 63.88,9.32 62.85,9.32 v 0 0 q -1.23,0.14 -1.3,0.96 v 0 0 q 0.07,0.81 1.3,0.88 v 0 0 q 1.03,0 1.3,-0.54 z m 5.54,-2.29 v 0 4.34 H 67.77 V 6.04 l 1.92,-0.21 v 0.62 0 q 0.69,-0.61 1.64,-0.61 v 0 0 q 1.3,0 1.98,0.78 v 0 0 q 0.68,0.79 0.68,1.82 v 0 4.23 h -1.91 v -3.76 0 q 0,-0.68 -0.34,-1.06 v 0 0 Q 71.39,7.48 70.7,7.46 v 0 0 Q 70.11,7.5 69.69,8.33 Z m 7.82,4.34 H 75.6 V 5.83 h 1.91 z M 75.53,4.2 v 0 0 q 0,0.41 0.27,0.68 v 0 0 q 0.28,0.27 0.76,0.27 v 0 0 q 0.47,0 0.75,-0.27 v 0 0 Q 77.58,4.61 77.58,4.2 v 0 0 q 0,-0.41 -0.27,-0.69 v 0 0 Q 77.03,3.23 76.54,3.23 v 0 0 q -0.46,0 -0.74,0.28 v 0 0 Q 75.53,3.79 75.53,4.2 Z m 4.53,3.62 -0.75,-1.16 v 0 q 1.3,-0.82 3.01,-0.82 v 0 0 q 1.23,0 1.95,0.68 v 0 0 q 0.71,0.69 0.71,2.05 v 0 4.1 h -1.91 v -0.54 0 q -0.83,0.54 -1.5,0.54 v 0 0 q -1.37,0 -2.05,-0.58 v 0 0 q -0.69,-0.58 -0.69,-1.6 v 0 0 q 0,-0.96 0.65,-1.71 v 0 0 q 0.64,-0.75 2.09,-0.75 v 0 0 q 0.66,0 1.5,0.41 v 0 -0.21 0 Q 83.06,7.48 81.98,7.41 v 0 0 q -1.23,0 -1.92,0.41 z m 3.01,2.8 v 0 -0.77 0 Q 82.8,9.32 81.77,9.32 v 0 0 q -1.23,0.14 -1.3,0.96 v 0 0 q 0.07,0.81 1.3,0.88 v 0 0 q 1.03,0 1.3,-0.54 z"
         id="path4"
         style="fill:#fd2d01;fill-opacity:1" />
    </g>
    <path
       d="m 72.285912,164.27705 c 3.825418,0 7.411774,-1.4687 10.110059,-4.16699 2.698286,-2.6983 4.166974,-6.28463 4.166974,-10.11006 0,-3.82544 -1.468688,-7.41176 -4.166974,-10.11007 -2.698285,-2.69829 -6.284641,-4.16697 -10.110059,-4.16697 -3.825445,0 -7.411774,1.46869 -10.110069,4.16697 -2.698287,2.6983 -4.166992,6.28463 -4.166992,10.11007 0,3.82543 1.468705,7.41176 4.166992,10.11006 2.698295,2.69829 6.284624,4.16699 10.110069,4.16699 z m 0.819719,-2.42506 c -0.273234,0.0342 -0.546486,0.0342 -0.819719,0.0342 -0.375727,0 -0.751434,-0.0342 -1.127134,-0.0684 -1.229596,-1.9127 -2.151816,-3.96206 -2.698311,-6.11386 h 6.045558 c 0.204986,0.51233 0.580637,0.99051 1.024668,1.29791 -0.580647,1.70779 -1.400394,3.31309 -2.425062,4.8501 z m 3.244781,-0.68311 c 0.64896,-1.19544 1.161303,-2.3909 1.571181,-3.65464 0.990488,-0.20494 1.776093,-0.88805 2.151791,-1.81025 h 2.629991 c -1.366242,2.49336 -3.654649,4.44023 -6.352963,5.46489 z M 84.137893,150 c 0,1.12712 -0.170863,2.22012 -0.444021,3.27894 h -3.688801 c -0.204987,-0.44402 -0.546495,-0.8539 -0.956345,-1.1613 0.06827,-0.75141 0.10237,-1.50284 0.10237,-2.25426 0,-1.05882 -0.06827,-2.11765 -0.204986,-3.14233 h 4.71346 c 0.341556,1.02467 0.478172,2.15182 0.478172,3.27895 z m -1.434518,-5.704 h -4.166993 c -0.44402,-1.87854 -1.09298,-3.65465 -1.981031,-5.36242 2.59584,0.99052 4.781782,2.93738 6.148024,5.36242 z m -5.943085,5.56738 c 0,0.58064 -0.03409,1.16129 -0.06827,1.74193 -0.956345,0.20493 -1.741922,0.81973 -2.117648,1.67363 h -6.592028 c -0.136738,-1.02467 -0.239109,-2.0835 -0.239109,-3.10816 0,-0.64896 0.03409,-1.29791 0.102371,-1.94687 0.888052,-0.17079 1.605304,-0.75142 2.049326,-1.50285 h 6.660349 c 0.136739,1.02467 0.204986,2.0835 0.204986,3.14232 z m -5.362429,-11.68122 c 0.307413,-0.0341 0.614789,-0.0341 0.888051,-0.0341 0.341556,0 0.683102,0 1.024658,0.0341 1.229607,1.91272 2.1518,3.96205 2.698286,6.11385 h -5.943058 c -0.204995,-0.58064 -0.580646,-1.09297 -1.058836,-1.46869 0.614807,-1.63947 1.400383,-3.17647 2.390899,-4.64516 z m -3.24477,0.68312 c -0.580666,1.09297 -1.092991,2.25426 -1.502859,3.41555 -1.058822,0.20494 -1.912711,0.99052 -2.254267,1.98103 h -2.493374 c 1.332072,-2.42505 3.552185,-4.37192 6.2505,-5.39658 z M 60.433903,150 c 0,-1.12713 0.170862,-2.25427 0.4782,-3.27895 h 3.722943 c 0.204988,0.37571 0.512344,0.71728 0.853901,0.99051 -0.06827,0.81974 -0.136741,1.63948 -0.136741,2.45922 0,1.05882 0.06827,2.08349 0.204988,3.10816 H 60.912046 C 60.570472,152.22012 60.433855,151.12712 60.433855,150 Z m 5.533215,5.66982 c 0.444022,1.84442 1.092982,3.65466 1.981032,5.36244 -2.595849,-1.02467 -4.747638,-2.93739 -6.07971,-5.36244 z"
       id="path7"
       style="fill:#fd2d01;fill-opacity:1;stroke-width:0.341557" />
  </g>
</svg>
