<?xml version="1.0" encoding="UTF-8" standalone="no"?>
<!-- Created with Inkscape (http://www.inkscape.org/) -->

<svg
   width="30.32509mm"
   height="30.325085mm"
   viewBox="0 0 30.32509 30.325085"
   version="1.1"
   id="svg1127"
   inkscape:version="1.1.2 (0a00cf5339, 2022-02-04)"
   sodipodi:docname="logo.svg"
   xmlns:inkscape="http://www.inkscape.org/namespaces/inkscape"
   xmlns:sodipodi="http://sodipodi.sourceforge.net/DTD/sodipodi-0.dtd"
   xmlns="http://www.w3.org/2000/svg"
   xmlns:svg="http://www.w3.org/2000/svg">
  <sodipodi:namedview
     id="namedview1129"
     pagecolor="#ffffff"
     bordercolor="#666666"
     borderopacity="1.0"
     inkscape:pageshadow="2"
     inkscape:pageopacity="0.0"
     inkscape:pagecheckerboard="0"
     inkscape:document-units="mm"
     showgrid="false"
     fit-margin-top="0"
     fit-margin-left="0"
     fit-margin-right="0"
     fit-margin-bottom="0"
     inkscape:zoom="2.9718855"
     inkscape:cx="22.881097"
     inkscape:cy="79.410865"
     inkscape:window-width="1920"
     inkscape:window-height="1019"
     inkscape:window-x="1920"
     inkscape:window-y="37"
     inkscape:window-maximized="1"
     inkscape:current-layer="layer1" />
  <defs
     id="defs1124" />
  <g
     inkscape:label="Calque 1"
     inkscape:groupmode="layer"
     id="layer1"
     transform="translate(-109.29311,-75.106065)">
    <path
       d="m 124.45567,105.43115 c 4.06268,0 7.87147,-1.55978 10.73711,-4.42543 2.86564,-2.865649 4.42542,-6.674422 4.42542,-10.737113 0,-4.062691 -1.55978,-7.871464 -4.42542,-10.73711 -2.86564,-2.865649 -6.67443,-4.425432 -10.73711,-4.425432 -4.06271,0 -7.87147,1.559783 -10.73712,4.425432 -2.86564,2.865646 -4.42544,6.674419 -4.42544,10.73711 0,4.062691 1.5598,7.871464 4.42544,10.737113 2.86565,2.86565 6.67441,4.42543 10.73712,4.42543 z m 0.87056,-2.57546 c -0.29018,0.0363 -0.58038,0.0363 -0.87056,0.0363 -0.39903,0 -0.79804,-0.0363 -1.19704,-0.0726 -1.30586,-2.03134 -2.28528,-4.207785 -2.86567,-6.493049 h 6.42052 c 0.2177,0.54411 0.61665,1.051946 1.08822,1.378413 -0.61666,1.8137 -1.48725,3.518576 -2.57547,5.150916 z m 3.44603,-0.72548 c 0.68921,-1.26959 1.23333,-2.539177 1.66863,-3.881317 1.05192,-0.217648 1.88625,-0.943125 2.28525,-1.922524 h 2.79311 c -1.45098,2.648003 -3.88132,4.715621 -6.74699,5.803841 z m 8.27048,-11.861603 c 0,1.197042 -0.18146,2.357813 -0.47156,3.482307 h -3.91759 c -0.2177,-0.471563 -0.58039,-0.906851 -1.01566,-1.233316 0.0725,-0.79803 0.10872,-1.596059 0.10872,-2.394086 0,-1.124494 -0.0725,-2.248991 -0.2177,-3.337212 h 5.0058 c 0.36274,1.088221 0.50783,2.285265 0.50783,3.482307 z m -1.52349,-6.057762 h -4.42544 c -0.47156,-1.995071 -1.16077,-3.881321 -2.1039,-5.695021 2.75684,1.051946 5.07836,3.119566 6.52934,5.695021 z m -6.31169,5.912667 c 0,0.616658 -0.0362,1.233315 -0.0725,1.849973 -1.01566,0.217649 -1.84996,0.870578 -2.24899,1.777429 h -7.00088 c -0.14522,-1.088221 -0.25394,-2.212715 -0.25394,-3.300938 0,-0.689205 0.0362,-1.378411 0.10872,-2.067619 0.94313,-0.181382 1.70487,-0.798027 2.17643,-1.596057 h 7.07344 c 0.14522,1.088221 0.2177,2.212718 0.2177,3.337212 z m -5.69502,-12.405718 c 0.32648,-0.03627 0.65292,-0.03627 0.94313,-0.03627 0.36274,0 0.72547,0 1.08821,0.03627 1.30587,2.031346 2.28526,4.207786 2.86564,6.493051 h -6.31166 c -0.21771,-0.616658 -0.61666,-1.160768 -1.12451,-1.559783 0.65294,-1.741154 1.48724,-3.373485 2.53919,-4.933268 z m -3.44602,0.725482 c -0.61668,1.160768 -1.16078,2.394084 -1.59607,3.627402 -1.12449,0.217649 -2.03134,1.051947 -2.39408,2.103893 h -2.64802 c 1.41469,-2.575455 3.7725,-4.643074 6.63817,-5.731295 z m -8.19795,11.825331 c 0,-1.197042 0.18146,-2.394086 0.50786,-3.482307 h 3.95385 c 0.2177,0.399015 0.54412,0.761756 0.90686,1.051947 -0.0725,0.870577 -0.14522,1.741155 -0.14522,2.611729 0,1.124497 0.0725,2.212717 0.2177,3.300938 h -4.93325 c -0.36276,-1.124494 -0.50785,-2.285265 -0.50785,-3.482307 z m 5.8764,6.021488 c 0.47156,1.958798 1.16077,3.881325 2.1039,5.695025 -2.75685,-1.08822 -5.0421,-3.119569 -6.45679,-5.695025 z"
       id="path7"
       style="fill:#fd2d01;fill-opacity:1;stroke-width:0.362741" />
  </g>
</svg>
